<?xml version="1.0" encoding="utf-8" standalone="no"?>
<!DOCTYPE svg PUBLIC "-//W3C//DTD SVG 1.1//EN"
  "http://www.w3.org/Graphics/SVG/1.1/DTD/svg11.dtd">
<svg height="360pt" version="1.1" viewBox="0 0 864 360" width="864pt" xmlns="http://www.w3.org/2000/svg" xmlns:xlink="http://www.w3.org/1999/xlink">
 <metadata>
  <rdf:RDF xmlns:cc="http://creativecommons.org/ns#" xmlns:dc="http://purl.org/dc/elements/1.1/" xmlns:rdf="http://www.w3.org/1999/02/22-rdf-syntax-ns#">
   <cc:Work>
    <dc:type rdf:resource="http://purl.org/dc/dcmitype/StillImage"/>
    <dc:date>2022-02-05T20:30:54.018381</dc:date>
    <dc:format>image/svg+xml</dc:format>
    <dc:creator>
     <cc:Agent>
      <dc:title>Matplotlib v3.4.0, https://matplotlib.org/</dc:title>
     </cc:Agent>
    </dc:creator>
   </cc:Work>
  </rdf:RDF>
 </metadata>
 <defs>
  <style type="text/css">*{stroke-linecap:butt;stroke-linejoin:round;}</style>
 </defs>
 <g id="figure_1">
  <g id="axes_1">
   <g id="patch_1">
    <path clip-path="url(#p4eced8d0f2)" d="M 44.307692 308.571429 
L 99.692308 308.571429 
L 99.692308 308.188205 
L 44.307692 308.188205 
z
" style="fill:#e6194b;stroke:#e6194b;stroke-linejoin:miter;stroke-width:3;"/>
   </g>
   <g id="patch_2">
    <path clip-path="url(#p4eced8d0f2)" d="M 110.769231 308.571429 
L 166.153846 308.571429 
L 166.153846 308.188205 
L 110.769231 308.188205 
z
" style="fill:#3cb44b;stroke:#3cb44b;stroke-linejoin:miter;stroke-width:3;"/>
   </g>
   <g id="patch_3">
    <path clip-path="url(#p4eced8d0f2)" d="M 177.230769 308.571429 
L 232.615385 308.571429 
L 232.615385 308.188205 
L 177.230769 308.188205 
z
" style="fill:#ffe119;stroke:#ffe119;stroke-linejoin:miter;stroke-width:3;"/>
   </g>
   <g id="patch_4">
    <path clip-path="url(#p4eced8d0f2)" d="M 243.692308 308.571429 
L 299.076923 308.571429 
L 299.076923 308.188205 
L 243.692308 308.188205 
z
" style="fill:#4363d8;stroke:#4363d8;stroke-linejoin:miter;stroke-width:3;"/>
   </g>
   <g id="patch_5">
    <path clip-path="url(#p4eced8d0f2)" d="M 310.153846 308.571429 
L 365.538462 308.571429 
L 365.538462 308.188205 
L 310.153846 308.188205 
z
" style="fill:#f58231;stroke:#f58231;stroke-linejoin:miter;stroke-width:3;"/>
   </g>
   <g id="patch_6">
    <path clip-path="url(#p4eced8d0f2)" d="M 376.615385 308.571429 
L 432 308.571429 
L 432 308.188205 
L 376.615385 308.188205 
z
" style="fill:#42d4f4;stroke:#42d4f4;stroke-linejoin:miter;stroke-width:3;"/>
   </g>
   <g id="patch_7">
    <path clip-path="url(#p4eced8d0f2)" d="M 443.076923 308.571429 
L 498.461538 308.571429 
L 498.461538 307.421759 
L 443.076923 307.421759 
z
" style="fill:#f032e6;stroke:#f032e6;stroke-linejoin:miter;stroke-width:3;"/>
   </g>
   <g id="patch_8">
    <path clip-path="url(#p4eced8d0f2)" d="M 509.538462 308.571429 
L 564.923077 308.571429 
L 564.923077 296.691505 
L 509.538462 296.691505 
z
" style="fill:#fabed4;stroke:#fabed4;stroke-linejoin:miter;stroke-width:3;"/>
   </g>
   <g id="patch_9">
    <path clip-path="url(#p4eced8d0f2)" d="M 576 308.571429 
L 631.384615 308.571429 
L 631.384615 294.008942 
L 576 294.008942 
z
" style="fill:#469990;stroke:#469990;stroke-linejoin:miter;stroke-width:3;"/>
   </g>
   <g id="patch_10">
    <path clip-path="url(#p4eced8d0f2)" d="M 642.461538 308.571429 
L 697.846154 308.571429 
L 697.846154 232.693208 
L 642.461538 232.693208 
z
" style="fill:#dcbeff;stroke:#dcbeff;stroke-linejoin:miter;stroke-width:3;"/>
   </g>
   <g id="patch_11">
    <path clip-path="url(#p4eced8d0f2)" d="M 708.923077 308.571429 
L 764.307692 308.571429 
L 764.307692 176.742602 
L 708.923077 176.742602 
z
" style="fill:#9a6324;stroke:#9a6324;stroke-linejoin:miter;stroke-width:3;"/>
   </g>
   <g id="patch_12">
    <path clip-path="url(#p4eced8d0f2)" d="M 775.384615 308.571429 
L 830.769231 308.571429 
L 830.769231 51.428571 
L 775.384615 51.428571 
z
" style="fill:#fffac8;stroke:#fffac8;stroke-linejoin:miter;stroke-width:3;"/>
   </g>
   <g id="text_1">
    <!-- 1 -->
    <g transform="translate(66.369411 301.709969)scale(0.25 -0.25)">
     <defs>
      <path d="M 2263 0 
L 1750 0 
L 1750 3872 
Q 1691 3813 1577 3736 
Q 1463 3659 1320 3584 
Q 1178 3509 1020 3443 
Q 863 3378 713 3341 
L 713 3859 
Q 881 3906 1070 3986 
Q 1259 4066 1442 4164 
Q 1625 4263 1787 4370 
Q 1950 4478 2069 4581 
L 2263 4581 
L 2263 0 
z
" id="SegoeUIEmoji-31" transform="scale(0.015625)"/>
     </defs>
     <use xlink:href="#SegoeUIEmoji-31"/>
    </g>
   </g>
   <g id="text_2">
    <!-- ðŸ» -->
    <g transform="translate(52.510817 342.650558)scale(0.3 -0.3)">
     <defs>
      <path d="M 7509 3266 
Q 7731 3147 7859 2936 
Q 7988 2725 7988 2472 
L 7988 1347 
Q 7988 1194 7938 1053 
Q 7888 913 7798 797 
Q 7709 681 7584 598 
Q 7459 516 7313 478 
L 7313 0 
Q 7313 -216 7217 -386 
Q 7122 -556 6970 -682 
Q 6819 -809 6631 -896 
Q 6444 -984 6259 -1031 
Q 6078 -1078 5890 -1100 
Q 5703 -1122 5516 -1122 
Q 5319 -1122 5105 -1095 
Q 4891 -1069 4684 -1006 
Q 4478 -944 4293 -842 
Q 4109 -741 3969 -591 
Q 3797 -634 3623 -653 
Q 3450 -672 3272 -672 
Q 3084 -672 2896 -650 
Q 2709 -628 2528 -581 
Q 2344 -534 2156 -446 
Q 1969 -359 1817 -232 
Q 1666 -106 1570 64 
Q 1475 234 1475 450 
L 1475 928 
Q 1325 966 1201 1048 
Q 1078 1131 989 1247 
Q 900 1363 850 1503 
Q 800 1644 800 1797 
L 800 2922 
Q 800 3172 928 3384 
Q 1056 3597 1278 3713 
Q 1250 3819 1250 3931 
L 1250 4156 
Q 1250 4394 1356 4580 
Q 1463 4766 1631 4905 
Q 1800 5044 2006 5137 
Q 2213 5231 2413 5284 
Q 2625 5341 2840 5366 
Q 3056 5391 3272 5391 
Q 3478 5391 3701 5366 
Q 3925 5341 4142 5281 
Q 4359 5222 4559 5126 
Q 4759 5031 4922 4891 
Q 5209 4941 5516 4941 
Q 5731 4941 5947 4916 
Q 6163 4891 6375 4834 
Q 6575 4781 6781 4687 
Q 6988 4594 7156 4455 
Q 7325 4316 7431 4130 
Q 7538 3944 7538 3706 
L 7538 3559 
Q 7538 3484 7533 3411 
Q 7528 3338 7509 3266 
z
M 6056 56 
Q 6163 78 6303 128 
Q 6444 178 6569 253 
Q 6694 328 6780 433 
Q 6866 538 6866 675 
L 6866 881 
Q 6859 794 6793 734 
Q 6728 675 6641 675 
Q 6547 675 6481 740 
Q 6416 806 6416 900 
L 6416 2600 
Q 6088 2503 5741 2478 
L 5741 675 
Q 5741 581 5675 515 
Q 5609 450 5516 450 
Q 5425 450 5358 517 
Q 5291 584 5291 675 
L 5291 1797 
Q 5200 1797 5120 1830 
Q 5041 1863 4980 1922 
Q 4919 1981 4883 2059 
Q 4847 2138 4844 2228 
L 4844 2159 
Q 4844 2078 4839 2003 
Q 4834 1928 4814 1862 
Q 4794 1797 4748 1739 
Q 4703 1681 4619 1634 
L 4619 900 
Q 4619 806 4553 740 
Q 4488 675 4394 675 
Q 4300 675 4234 740 
Q 4169 806 4169 900 
L 4169 1634 
Q 4066 1694 4005 1798 
Q 3944 1903 3944 2022 
L 3944 2678 
Q 3941 2588 3903 2509 
Q 3866 2431 3805 2372 
Q 3744 2313 3664 2280 
Q 3584 2247 3494 2247 
L 3494 1125 
Q 3494 1034 3428 967 
Q 3363 900 3272 900 
Q 3178 900 3112 965 
Q 3047 1031 3047 1125 
L 3047 2922 
L 3031 2922 
Q 2975 2922 2883 2936 
Q 2791 2950 2695 2970 
Q 2600 2991 2511 3012 
Q 2422 3034 2372 3050 
L 2372 1347 
Q 2372 1256 2305 1190 
Q 2238 1125 2147 1125 
Q 2059 1125 1993 1183 
Q 1928 1241 1922 1328 
L 1922 1125 
Q 1922 988 2008 883 
Q 2094 778 2219 703 
Q 2344 628 2483 578 
Q 2622 528 2731 506 
Q 2997 450 3272 450 
Q 3497 450 3730 490 
Q 3963 531 4169 622 
L 4169 675 
Q 4169 538 4255 433 
Q 4341 328 4466 253 
Q 4591 178 4730 128 
Q 4869 78 4975 56 
Q 5241 0 5516 0 
Q 5788 0 6056 56 
z
M 5516 2697 
Q 5672 2697 5837 2712 
Q 6003 2728 6167 2765 
Q 6331 2803 6484 2862 
Q 6638 2922 6772 3009 
Q 6831 3050 6889 3100 
Q 6947 3150 6990 3208 
Q 7034 3266 7061 3334 
Q 7088 3403 7088 3481 
Q 7088 3525 7089 3564 
Q 7091 3603 7091 3641 
Q 7091 3734 7072 3817 
Q 7053 3900 6984 3991 
Q 6875 4134 6695 4229 
Q 6516 4325 6309 4384 
Q 6103 4444 5893 4469 
Q 5684 4494 5519 4494 
Q 5356 4494 5176 4475 
Q 4997 4456 4820 4412 
Q 4644 4369 4481 4298 
Q 4319 4228 4188 4125 
Q 4088 4047 4016 3942 
Q 3944 3838 3944 3706 
L 3944 3481 
Q 3944 3413 3975 3333 
Q 4006 3253 4047 3164 
Q 4088 3075 4123 2978 
Q 4159 2881 4166 2778 
Q 4175 2638 4175 2497 
Q 4175 2378 4172 2259 
Q 4169 2141 4169 2022 
Q 4169 1941 4220 1878 
Q 4272 1816 4353 1800 
Q 4363 1797 4373 1797 
Q 4384 1797 4394 1797 
Q 4484 1797 4551 1864 
Q 4619 1931 4619 2022 
Q 4619 2053 4617 2084 
Q 4616 2116 4616 2150 
Q 4616 2209 4623 2267 
Q 4631 2325 4654 2370 
Q 4678 2416 4723 2444 
Q 4769 2472 4844 2472 
Q 4931 2472 4992 2415 
Q 5053 2359 5066 2275 
L 5066 2247 
Q 5066 2228 5069 2219 
Q 5084 2134 5143 2078 
Q 5203 2022 5294 2022 
Q 5334 2022 5373 2037 
Q 5413 2053 5444 2081 
Q 5475 2109 5495 2146 
Q 5516 2184 5516 2228 
L 5516 2697 
z
M 3497 2472 
Q 3588 2472 3645 2528 
Q 3703 2584 3719 2669 
L 3719 2697 
Q 3719 2716 3722 2725 
Q 3738 2800 3784 2853 
Q 3831 2906 3909 2919 
Q 3884 2994 3853 3061 
Q 3822 3128 3790 3193 
Q 3759 3259 3739 3329 
Q 3719 3400 3719 3481 
L 3719 3706 
Q 3719 3881 3801 4022 
Q 3884 4163 4011 4270 
Q 4138 4378 4292 4456 
Q 4447 4534 4594 4581 
Q 4456 4684 4295 4753 
Q 4134 4822 3962 4864 
Q 3791 4906 3616 4923 
Q 3441 4941 3272 4941 
Q 3116 4941 2948 4925 
Q 2781 4909 2617 4871 
Q 2453 4834 2297 4773 
Q 2141 4713 2009 4625 
Q 1950 4584 1894 4534 
Q 1838 4484 1794 4426 
Q 1750 4369 1723 4300 
Q 1697 4231 1697 4156 
Q 1697 4113 1695 4073 
Q 1694 4034 1694 4000 
Q 1694 3922 1708 3851 
Q 1722 3781 1769 3700 
Q 1853 3559 2008 3461 
Q 2163 3363 2342 3298 
Q 2522 3234 2709 3200 
Q 2897 3166 3047 3153 
Q 3138 3147 3202 3087 
Q 3266 3028 3269 2931 
L 3272 2891 
L 3272 2697 
Q 3272 2603 3337 2537 
Q 3403 2472 3497 2472 
z
M 6866 450 
Q 6866 319 6784 216 
Q 6703 113 6584 37 
Q 6466 -38 6331 -86 
Q 6197 -134 6094 -159 
Q 5950 -194 5806 -209 
Q 5663 -225 5516 -225 
Q 5369 -225 5225 -209 
Q 5081 -194 4938 -159 
Q 4834 -134 4700 -86 
Q 4566 -38 4448 37 
Q 4331 113 4250 216 
Q 4169 319 4169 450 
L 4169 397 
Q 3963 306 3730 265 
Q 3497 225 3272 225 
Q 3125 225 2979 240 
Q 2834 256 2694 291 
Q 2591 316 2456 364 
Q 2322 413 2203 488 
Q 2084 563 2003 666 
Q 1922 769 1922 900 
L 1922 450 
Q 1922 319 2003 216 
Q 2084 113 2203 37 
Q 2322 -38 2456 -86 
Q 2591 -134 2694 -159 
Q 2834 -194 2979 -209 
Q 3125 -225 3272 -225 
Q 3500 -225 3733 -186 
Q 3966 -147 4172 -50 
Q 4191 -172 4270 -265 
Q 4350 -359 4469 -428 
Q 4588 -497 4730 -544 
Q 4872 -591 5014 -619 
Q 5156 -647 5287 -659 
Q 5419 -672 5516 -672 
Q 5663 -672 5806 -656 
Q 5950 -641 6094 -606 
Q 6197 -581 6330 -532 
Q 6463 -484 6583 -409 
Q 6703 -334 6784 -232 
Q 6866 -131 6866 0 
L 6866 450 
z
M 7538 2472 
Q 7538 2566 7502 2647 
Q 7466 2728 7405 2789 
Q 7344 2850 7262 2886 
Q 7181 2922 7088 2922 
L 7028 2922 
Q 6991 2888 6950 2858 
Q 6909 2828 6866 2800 
L 6866 2472 
L 7088 2472 
L 7088 1347 
L 6866 1347 
L 6866 900 
L 7088 900 
Q 7181 900 7262 934 
Q 7344 969 7405 1030 
Q 7466 1091 7502 1172 
Q 7538 1253 7538 1347 
L 7538 2472 
z
M 1922 1328 
L 1922 1797 
L 1697 1797 
L 1697 2922 
L 1922 2922 
L 1922 3250 
Q 1878 3278 1839 3306 
Q 1800 3334 1759 3369 
L 1697 3369 
Q 1603 3369 1522 3334 
Q 1441 3300 1380 3239 
Q 1319 3178 1284 3097 
Q 1250 3016 1250 2922 
L 1250 1797 
Q 1250 1703 1284 1622 
Q 1319 1541 1380 1480 
Q 1441 1419 1522 1383 
Q 1603 1347 1697 1347 
L 1922 1347 
L 1922 1328 
z
" id="SegoeUIEmoji-1f37b" transform="scale(0.015625)"/>
     </defs>
     <use xlink:href="#SegoeUIEmoji-1f37b"/>
    </g>
   </g>
   <g id="text_3">
    <!-- 1 -->
    <g transform="translate(132.83095 301.709969)scale(0.25 -0.25)">
     <use xlink:href="#SegoeUIEmoji-31"/>
    </g>
   </g>
   <g id="text_4">
    <!-- ðŸ¥° -->
    <g transform="translate(118.972356 344.232589)scale(0.3 -0.3)">
     <defs>
      <path d="M 7422 4178 
Q 7700 3744 7844 3253 
Q 7988 2763 7988 2247 
Q 7988 1788 7873 1345 
Q 7759 903 7534 503 
Q 7522 369 7465 245 
Q 7409 122 7316 28 
L 6303 -994 
L 6181 -869 
Q 5772 -1103 5320 -1225 
Q 4869 -1347 4394 -1347 
Q 3897 -1347 3439 -1219 
Q 2981 -1091 2581 -856 
Q 2181 -622 1853 -294 
Q 1525 34 1290 434 
Q 1056 834 928 1293 
Q 800 1753 800 2247 
Q 800 2641 884 3023 
Q 969 3406 1138 3766 
Q 1081 3856 1053 3959 
Q 1025 4063 1025 4172 
Q 1025 4331 1084 4472 
Q 1144 4613 1248 4717 
Q 1353 4822 1493 4881 
Q 1634 4941 1794 4941 
Q 1891 4941 1991 4916 
Q 2488 5366 3105 5603 
Q 3722 5841 4394 5841 
Q 4750 5841 5098 5772 
Q 5447 5703 5778 5563 
Q 5919 5616 6063 5616 
Q 6188 5616 6308 5575 
Q 6428 5534 6528 5456 
Q 6628 5534 6747 5575 
Q 6866 5616 6994 5616 
Q 7153 5616 7293 5555 
Q 7434 5494 7539 5389 
Q 7644 5284 7703 5142 
Q 7763 5000 7763 4841 
Q 7763 4728 7738 4639 
Q 7713 4550 7667 4472 
Q 7622 4394 7559 4323 
Q 7497 4253 7422 4178 
z
M 4394 -897 
Q 4775 -897 5144 -808 
Q 5513 -719 5853 -541 
L 5291 28 
Q 5094 231 5069 509 
Q 4909 438 4737 403 
Q 4566 369 4391 369 
Q 4216 369 4033 411 
Q 3850 453 3676 531 
Q 3503 609 3353 721 
Q 3203 834 3097 975 
Q 3072 1009 3059 1042 
Q 3047 1075 3047 1119 
Q 3047 1209 3112 1276 
Q 3178 1344 3269 1344 
Q 3328 1344 3365 1323 
Q 3403 1303 3444 1263 
Q 3481 1225 3514 1186 
Q 3547 1147 3591 1113 
Q 3756 969 3962 892 
Q 4169 816 4391 816 
Q 4613 816 4820 892 
Q 5028 969 5197 1116 
Q 5241 1150 5273 1189 
Q 5306 1228 5344 1266 
Q 5384 1306 5421 1326 
Q 5459 1347 5516 1347 
Q 5575 1347 5628 1319 
Q 5731 1347 5838 1347 
Q 5963 1347 6083 1306 
Q 6203 1266 6303 1191 
Q 6403 1269 6522 1309 
Q 6641 1350 6769 1350 
Q 6928 1350 7072 1287 
Q 7216 1225 7325 1109 
Q 7538 1656 7538 2244 
Q 7538 2669 7425 3076 
Q 7313 3484 7097 3850 
Q 6953 3706 6809 3565 
Q 6666 3425 6528 3275 
L 5875 3934 
Q 5784 4025 5693 4114 
Q 5603 4203 5516 4297 
Q 5406 4416 5348 4550 
Q 5291 4684 5291 4844 
Q 5291 4944 5317 5042 
Q 5344 5141 5394 5228 
Q 5150 5309 4900 5350 
Q 4650 5391 4394 5391 
Q 3966 5391 3553 5277 
Q 3141 5163 2772 4941 
Q 2925 4931 3058 4865 
Q 3191 4800 3287 4697 
Q 3384 4594 3439 4458 
Q 3494 4322 3494 4169 
Q 3494 4016 3437 3873 
Q 3381 3731 3272 3622 
L 2709 3056 
Q 2863 3144 3047 3144 
L 3272 3144 
Q 3413 3144 3534 3091 
Q 3656 3038 3747 2947 
Q 3838 2856 3891 2734 
Q 3944 2613 3944 2472 
L 3719 2472 
Q 3719 2563 3651 2630 
Q 3584 2697 3494 2697 
L 2822 2697 
Q 2731 2697 2664 2630 
Q 2597 2563 2597 2472 
L 2372 2472 
Q 2372 2559 2394 2643 
Q 2416 2728 2459 2803 
L 2259 2600 
Q 2059 2800 1864 3000 
Q 1669 3200 1469 3400 
Q 1359 3125 1304 2834 
Q 1250 2544 1250 2247 
Q 1250 1813 1362 1411 
Q 1475 1009 1679 659 
Q 1884 309 2170 23 
Q 2456 -263 2806 -467 
Q 3156 -672 3557 -784 
Q 3959 -897 4394 -897 
z
M 6528 5147 
Q 6475 5200 6426 5245 
Q 6378 5291 6323 5323 
Q 6269 5356 6206 5373 
Q 6144 5391 6063 5391 
Q 5947 5391 5847 5347 
Q 5747 5303 5673 5228 
Q 5600 5153 5558 5053 
Q 5516 4953 5516 4841 
Q 5516 4622 5675 4453 
Q 5881 4231 6097 4020 
Q 6313 3809 6528 3594 
Q 6744 3809 6958 4020 
Q 7172 4231 7378 4453 
Q 7538 4622 7538 4841 
Q 7538 4953 7495 5053 
Q 7453 5153 7379 5228 
Q 7306 5303 7206 5347 
Q 7106 5391 6994 5391 
Q 6834 5391 6732 5323 
Q 6631 5256 6528 5147 
z
M 6303 -672 
Q 6519 -456 6731 -243 
Q 6944 -31 7153 188 
Q 7231 269 7273 364 
Q 7316 459 7316 575 
Q 7316 688 7273 788 
Q 7231 888 7156 963 
Q 7081 1038 6981 1081 
Q 6881 1125 6769 1125 
Q 6688 1125 6625 1108 
Q 6563 1091 6509 1058 
Q 6456 1025 6406 979 
Q 6356 934 6303 881 
L 6300 878 
Q 6303 878 6294 888 
L 6222 963 
Q 6144 1041 6045 1083 
Q 5947 1125 5838 1125 
Q 5725 1125 5625 1081 
Q 5525 1038 5450 963 
Q 5375 888 5333 788 
Q 5291 688 5291 575 
Q 5291 475 5328 373 
Q 5366 272 5438 200 
L 6303 -672 
z
M 1794 4716 
Q 1678 4716 1579 4673 
Q 1481 4631 1407 4556 
Q 1334 4481 1292 4381 
Q 1250 4281 1250 4169 
Q 1250 4072 1275 3998 
Q 1300 3925 1344 3862 
Q 1388 3800 1445 3744 
Q 1503 3688 1566 3622 
L 2259 2922 
L 3113 3781 
Q 3184 3856 3226 3954 
Q 3269 4053 3269 4159 
Q 3269 4272 3228 4373 
Q 3188 4475 3114 4551 
Q 3041 4628 2942 4672 
Q 2844 4716 2728 4716 
Q 2647 4716 2584 4698 
Q 2522 4681 2467 4650 
Q 2413 4619 2363 4573 
Q 2313 4528 2259 4475 
Q 2206 4528 2156 4573 
Q 2106 4619 2053 4650 
Q 2000 4681 1937 4698 
Q 1875 4716 1794 4716 
z
M 5291 2697 
Q 5200 2697 5134 2630 
Q 5069 2563 5069 2472 
L 4844 2472 
Q 4844 2613 4897 2734 
Q 4950 2856 5040 2947 
Q 5131 3038 5253 3091 
Q 5375 3144 5516 3144 
L 5741 3144 
Q 5881 3144 6003 3091 
Q 6125 3038 6217 2947 
Q 6309 2856 6362 2734 
Q 6416 2613 6416 2472 
L 6191 2472 
Q 6191 2563 6123 2630 
Q 6056 2697 5966 2697 
L 5291 2697 
z
" id="SegoeUIEmoji-1f970" transform="scale(0.015625)"/>
     </defs>
     <use xlink:href="#SegoeUIEmoji-1f970"/>
    </g>
   </g>
   <g id="text_5">
    <!-- 1 -->
    <g transform="translate(199.292488 301.709969)scale(0.25 -0.25)">
     <use xlink:href="#SegoeUIEmoji-31"/>
    </g>
   </g>
   <g id="text_6">
    <!-- ðŸ’— -->
    <g transform="translate(185.433894 342.561496)scale(0.3 -0.3)">
     <defs>
      <path d="M 5950 5391 
Q 6231 5391 6490 5317 
Q 6750 5244 6976 5111 
Q 7203 4978 7389 4792 
Q 7575 4606 7708 4379 
Q 7841 4153 7914 3893 
Q 7988 3634 7988 3353 
Q 7988 2944 7833 2572 
Q 7678 2200 7391 1913 
L 4394 -1084 
L 1397 1913 
Q 1109 2200 954 2572 
Q 800 2944 800 3353 
Q 800 3634 873 3895 
Q 947 4156 1078 4381 
Q 1209 4606 1396 4793 
Q 1584 4981 1809 5112 
Q 2034 5244 2295 5317 
Q 2556 5391 2838 5391 
Q 3078 5391 3290 5342 
Q 3503 5294 3693 5203 
Q 3884 5113 4057 4980 
Q 4231 4847 4394 4678 
Q 4556 4847 4729 4980 
Q 4903 5113 5093 5203 
Q 5284 5294 5496 5342 
Q 5709 5391 5950 5391 
z
M 7538 3353 
Q 7538 3681 7413 3970 
Q 7288 4259 7072 4475 
Q 6856 4691 6567 4816 
Q 6278 4941 5950 4941 
Q 5694 4941 5497 4881 
Q 5300 4822 5134 4717 
Q 4969 4613 4820 4470 
Q 4672 4328 4513 4166 
L 4394 4044 
L 4266 4175 
Q 4109 4334 3961 4473 
Q 3813 4613 3647 4717 
Q 3481 4822 3286 4881 
Q 3091 4941 2838 4941 
Q 2509 4941 2220 4816 
Q 1931 4691 1715 4475 
Q 1500 4259 1375 3970 
Q 1250 3681 1250 3353 
Q 1250 3034 1370 2745 
Q 1491 2456 1716 2231 
L 4394 -450 
L 7072 2231 
Q 7297 2456 7417 2745 
Q 7538 3034 7538 3353 
z
M 5528 4269 
Q 5803 4269 6047 4162 
Q 6291 4056 6472 3875 
Q 6653 3694 6759 3450 
Q 6866 3206 6866 2931 
Q 6866 2663 6762 2419 
Q 6659 2175 6472 1988 
L 4394 -94 
L 2316 1988 
Q 2128 2175 2025 2419 
Q 1922 2663 1922 2931 
Q 1922 3206 2028 3450 
Q 2134 3694 2315 3875 
Q 2497 4056 2740 4162 
Q 2984 4269 3259 4269 
Q 3450 4269 3603 4226 
Q 3756 4184 3889 4106 
Q 4022 4028 4144 3922 
Q 4266 3816 4394 3688 
Q 4522 3816 4644 3922 
Q 4766 4028 4898 4106 
Q 5031 4184 5184 4226 
Q 5338 4269 5528 4269 
z
M 6638 2931 
Q 6638 3159 6550 3362 
Q 6463 3566 6313 3717 
Q 6163 3869 5961 3956 
Q 5759 4044 5528 4044 
Q 5344 4044 5201 3998 
Q 5059 3953 4937 3873 
Q 4816 3794 4709 3689 
Q 4603 3584 4491 3469 
L 4394 3369 
L 4297 3469 
Q 4184 3584 4078 3689 
Q 3972 3794 3850 3873 
Q 3728 3953 3584 3998 
Q 3441 4044 3259 4044 
Q 3028 4044 2826 3956 
Q 2625 3869 2473 3717 
Q 2322 3566 2234 3362 
Q 2147 3159 2147 2931 
Q 2147 2706 2230 2506 
Q 2313 2306 2472 2147 
L 4394 225 
L 6316 2147 
Q 6472 2303 6555 2508 
Q 6638 2713 6638 2931 
z
M 5106 3369 
Q 5284 3369 5440 3301 
Q 5597 3234 5714 3117 
Q 5831 3000 5898 2844 
Q 5966 2688 5966 2509 
Q 5966 2338 5898 2178 
Q 5831 2019 5713 1900 
L 4394 581 
L 3072 1900 
Q 2953 2019 2887 2180 
Q 2822 2341 2822 2509 
Q 2822 2688 2889 2845 
Q 2956 3003 3072 3118 
Q 3188 3234 3345 3301 
Q 3503 3369 3681 3369 
Q 3800 3369 3897 3344 
Q 3994 3319 4076 3272 
Q 4159 3225 4236 3159 
Q 4313 3094 4394 3013 
Q 4472 3094 4550 3159 
Q 4628 3225 4712 3272 
Q 4797 3319 4892 3344 
Q 4988 3369 5106 3369 
z
M 5741 2509 
Q 5741 2641 5691 2756 
Q 5641 2872 5555 2958 
Q 5469 3044 5353 3094 
Q 5238 3144 5106 3144 
Q 4981 3144 4884 3103 
Q 4788 3063 4705 3000 
Q 4622 2938 4547 2856 
Q 4472 2775 4394 2697 
Q 4313 2775 4239 2856 
Q 4166 2938 4083 3000 
Q 4000 3063 3903 3103 
Q 3806 3144 3681 3144 
Q 3550 3144 3434 3094 
Q 3319 3044 3233 2958 
Q 3147 2872 3097 2756 
Q 3047 2641 3047 2509 
Q 3047 2381 3094 2265 
Q 3141 2150 3231 2059 
L 4394 900 
L 5556 2059 
Q 5647 2150 5694 2265 
Q 5741 2381 5741 2509 
z
" id="SegoeUIEmoji-1f497" transform="scale(0.015625)"/>
     </defs>
     <use xlink:href="#SegoeUIEmoji-1f497"/>
    </g>
   </g>
   <g id="text_7">
    <!-- 1 -->
    <g transform="translate(265.754026 301.709969)scale(0.25 -0.25)">
     <use xlink:href="#SegoeUIEmoji-31"/>
    </g>
   </g>
   <g id="text_8">
    <!-- ðŸ˜„ -->
    <g transform="translate(251.895433 344.232589)scale(0.3 -0.3)">
     <defs>
      <path d="M 4394 5841 
Q 4891 5841 5350 5712 
Q 5809 5584 6207 5350 
Q 6606 5116 6934 4787 
Q 7263 4459 7497 4061 
Q 7731 3663 7859 3203 
Q 7988 2744 7988 2247 
Q 7988 1750 7859 1290 
Q 7731 831 7497 432 
Q 7263 34 6934 -294 
Q 6606 -622 6207 -856 
Q 5809 -1091 5350 -1219 
Q 4891 -1347 4394 -1347 
Q 3897 -1347 3437 -1219 
Q 2978 -1091 2579 -856 
Q 2181 -622 1853 -294 
Q 1525 34 1290 432 
Q 1056 831 928 1290 
Q 800 1750 800 2247 
Q 800 2744 928 3203 
Q 1056 3663 1290 4061 
Q 1525 4459 1853 4787 
Q 2181 5116 2579 5350 
Q 2978 5584 3437 5712 
Q 3897 5841 4394 5841 
z
M 4394 -897 
Q 4828 -897 5229 -784 
Q 5631 -672 5981 -467 
Q 6331 -263 6617 23 
Q 6903 309 7108 659 
Q 7313 1009 7425 1411 
Q 7538 1813 7538 2247 
Q 7538 2681 7425 3082 
Q 7313 3484 7108 3834 
Q 6903 4184 6617 4470 
Q 6331 4756 5981 4961 
Q 5631 5166 5229 5278 
Q 4828 5391 4394 5391 
Q 3959 5391 3557 5278 
Q 3156 5166 2806 4961 
Q 2456 4756 2170 4470 
Q 1884 4184 1679 3834 
Q 1475 3484 1362 3082 
Q 1250 2681 1250 2247 
Q 1250 1813 1362 1411 
Q 1475 1009 1679 659 
Q 1884 309 2170 23 
Q 2456 -263 2806 -467 
Q 3156 -672 3557 -784 
Q 3959 -897 4394 -897 
z
M 5628 3369 
Q 5791 3369 5934 3308 
Q 6078 3247 6184 3140 
Q 6291 3034 6353 2890 
Q 6416 2747 6416 2584 
L 6416 2472 
L 6191 2472 
Q 6191 2588 6147 2691 
Q 6103 2794 6026 2870 
Q 5950 2947 5847 2990 
Q 5744 3034 5628 3034 
Q 5509 3034 5407 2990 
Q 5306 2947 5231 2870 
Q 5156 2794 5112 2691 
Q 5069 2588 5069 2472 
L 4844 2472 
L 4844 2584 
Q 4844 2747 4905 2890 
Q 4966 3034 5072 3140 
Q 5178 3247 5320 3308 
Q 5463 3369 5628 3369 
z
M 3159 3034 
Q 3041 3034 2939 2990 
Q 2838 2947 2761 2870 
Q 2684 2794 2640 2691 
Q 2597 2588 2597 2472 
L 2372 2472 
L 2372 2584 
Q 2372 2747 2434 2890 
Q 2497 3034 2603 3140 
Q 2709 3247 2853 3308 
Q 2997 3369 3159 3369 
Q 3322 3369 3465 3308 
Q 3609 3247 3715 3140 
Q 3822 3034 3883 2890 
Q 3944 2747 3944 2584 
L 3944 2472 
L 3719 2472 
Q 3719 2588 3675 2691 
Q 3631 2794 3556 2870 
Q 3481 2947 3378 2990 
Q 3275 3034 3159 3034 
z
M 4394 -225 
Q 4022 -225 3695 -83 
Q 3369 59 3125 303 
Q 2881 547 2739 873 
Q 2597 1200 2597 1572 
L 6191 1572 
Q 6191 1200 6048 873 
Q 5906 547 5662 303 
Q 5419 59 5092 -83 
Q 4766 -225 4394 -225 
z
M 4394 0 
Q 4566 0 4734 37 
Q 4903 75 5059 150 
Q 4931 297 4759 373 
Q 4588 450 4394 450 
Q 4200 450 4028 373 
Q 3856 297 3728 150 
Q 3884 75 4053 37 
Q 4222 0 4394 0 
z
M 5813 900 
Q 5919 1116 5950 1347 
L 2838 1347 
Q 2872 1106 2972 900 
L 5813 900 
z
" id="SegoeUIEmoji-1f604" transform="scale(0.015625)"/>
     </defs>
     <use xlink:href="#SegoeUIEmoji-1f604"/>
    </g>
   </g>
   <g id="text_9">
    <!-- 1 -->
    <g transform="translate(332.215565 301.709969)scale(0.25 -0.25)">
     <use xlink:href="#SegoeUIEmoji-31"/>
    </g>
   </g>
   <g id="text_10">
    <!-- ðŸ˜Ž -->
    <g transform="translate(318.356971 344.232589)scale(0.3 -0.3)">
     <defs>
      <path d="M 7988 4269 
L 7988 3819 
Q 7988 3775 7970 3734 
Q 7953 3694 7922 3661 
Q 7891 3628 7852 3608 
Q 7813 3588 7769 3588 
Q 7756 3588 7747 3589 
Q 7738 3591 7725 3594 
Q 7856 3272 7922 2933 
Q 7988 2594 7988 2247 
Q 7988 1750 7859 1290 
Q 7731 831 7497 432 
Q 7263 34 6934 -294 
Q 6606 -622 6207 -856 
Q 5809 -1091 5350 -1219 
Q 4891 -1347 4394 -1347 
Q 3897 -1347 3437 -1219 
Q 2978 -1091 2579 -856 
Q 2181 -622 1853 -294 
Q 1525 34 1290 432 
Q 1056 831 928 1290 
Q 800 1750 800 2247 
Q 800 2594 865 2933 
Q 931 3272 1063 3594 
L 1047 3594 
Q 947 3594 873 3651 
Q 800 3709 800 3819 
L 800 4269 
L 1422 4269 
Q 1675 4638 2003 4928 
Q 2331 5219 2714 5422 
Q 3097 5625 3522 5733 
Q 3947 5841 4394 5841 
Q 4841 5841 5266 5733 
Q 5691 5625 6073 5422 
Q 6456 5219 6784 4928 
Q 7113 4638 7366 4269 
L 7988 4269 
z
M 4394 -897 
Q 4828 -897 5229 -784 
Q 5631 -672 5981 -467 
Q 6331 -263 6617 23 
Q 6903 309 7108 659 
Q 7313 1009 7425 1411 
Q 7538 1813 7538 2247 
Q 7538 2575 7470 2894 
Q 7403 3213 7272 3513 
L 6869 2722 
Q 6834 2653 6789 2570 
Q 6744 2488 6687 2416 
Q 6631 2344 6564 2295 
Q 6497 2247 6416 2247 
L 5291 2247 
Q 5197 2247 5115 2283 
Q 5034 2319 4973 2380 
Q 4913 2441 4878 2522 
Q 4844 2603 4844 2697 
L 4844 2922 
Q 4844 3016 4808 3097 
Q 4772 3178 4711 3239 
Q 4650 3300 4569 3334 
Q 4488 3369 4394 3369 
Q 4300 3369 4219 3334 
Q 4138 3300 4077 3239 
Q 4016 3178 3980 3097 
Q 3944 3016 3944 2922 
L 3944 2697 
Q 3944 2603 3908 2520 
Q 3872 2438 3811 2377 
Q 3750 2316 3669 2281 
Q 3588 2247 3494 2247 
L 2372 2247 
Q 2344 2247 2309 2273 
Q 2275 2300 2244 2337 
Q 2213 2375 2186 2412 
Q 2159 2450 2147 2472 
Q 2088 2563 2034 2655 
Q 1981 2747 1928 2838 
Q 1828 3013 1723 3181 
Q 1619 3350 1519 3522 
Q 1384 3219 1317 2898 
Q 1250 2578 1250 2247 
Q 1250 1813 1362 1411 
Q 1475 1009 1679 659 
Q 1884 309 2170 23 
Q 2456 -263 2806 -467 
Q 3156 -672 3557 -784 
Q 3959 -897 4394 -897 
z
M 4394 5391 
Q 4044 5391 3709 5316 
Q 3375 5241 3067 5097 
Q 2759 4953 2484 4743 
Q 2209 4534 1984 4269 
L 3716 4269 
L 3941 4044 
L 4847 4044 
L 5069 4269 
L 6803 4269 
Q 6578 4534 6303 4743 
Q 6028 4953 5720 5097 
Q 5413 5241 5078 5316 
Q 4744 5391 4394 5391 
z
M 5738 1438 
Q 5828 1438 5895 1370 
Q 5963 1303 5963 1213 
Q 5963 1178 5955 1153 
Q 5947 1128 5931 1097 
Q 5825 897 5654 736 
Q 5484 575 5278 461 
Q 5072 347 4844 286 
Q 4616 225 4394 225 
Q 4172 225 3944 286 
Q 3716 347 3508 461 
Q 3300 575 3129 736 
Q 2959 897 2853 1097 
Q 2838 1128 2830 1153 
Q 2822 1178 2822 1213 
Q 2822 1303 2887 1370 
Q 2953 1438 3044 1438 
Q 3113 1438 3153 1408 
Q 3194 1378 3238 1328 
Q 3281 1275 3318 1219 
Q 3356 1163 3400 1109 
Q 3488 1006 3603 925 
Q 3719 844 3850 787 
Q 3981 731 4120 703 
Q 4259 675 4394 675 
Q 4528 675 4665 704 
Q 4803 734 4934 789 
Q 5066 844 5181 925 
Q 5297 1006 5384 1109 
Q 5428 1163 5465 1219 
Q 5503 1275 5547 1328 
Q 5591 1381 5628 1409 
Q 5666 1438 5738 1438 
z
M 3494 2697 
L 2822 3819 
L 2147 3819 
L 2822 2697 
L 3494 2697 
z
M 6416 2697 
L 5741 3819 
L 5069 3819 
L 5741 2697 
L 6416 2697 
z
" id="SegoeUIEmoji-1f60e" transform="scale(0.015625)"/>
     </defs>
     <use xlink:href="#SegoeUIEmoji-1f60e"/>
    </g>
   </g>
   <g id="text_11">
    <!-- 1 -->
    <g transform="translate(398.677103 301.709969)scale(0.25 -0.25)">
     <use xlink:href="#SegoeUIEmoji-31"/>
    </g>
   </g>
   <g id="text_12">
    <!-- ðŸ˜ -->
    <g transform="translate(384.81851 344.232589)scale(0.3 -0.3)">
     <defs>
      <path d="M 7538 2247 
Q 7538 2347 7533 2444 
Q 7528 2541 7513 2641 
Q 7631 2775 7697 2942 
Q 7763 3109 7763 3288 
Q 7763 3494 7688 3676 
Q 7613 3859 7480 3995 
Q 7347 4131 7167 4212 
Q 6988 4294 6778 4297 
Q 6556 4559 6284 4762 
Q 6013 4966 5706 5105 
Q 5400 5244 5067 5317 
Q 4734 5391 4394 5391 
Q 4050 5391 3719 5317 
Q 3388 5244 3081 5105 
Q 2775 4966 2503 4762 
Q 2231 4559 2009 4297 
Q 1869 4294 1736 4253 
Q 1603 4213 1489 4139 
Q 1375 4066 1281 3964 
Q 1188 3863 1125 3734 
Q 1344 4216 1684 4605 
Q 2025 4994 2451 5269 
Q 2878 5544 3372 5692 
Q 3866 5841 4394 5841 
Q 4888 5841 5347 5712 
Q 5806 5584 6206 5350 
Q 6606 5116 6934 4787 
Q 7263 4459 7497 4059 
Q 7731 3659 7859 3200 
Q 7988 2741 7988 2247 
Q 7988 1750 7859 1292 
Q 7731 834 7497 434 
Q 7263 34 6934 -294 
Q 6606 -622 6206 -856 
Q 5806 -1091 5347 -1219 
Q 4888 -1347 4394 -1347 
Q 3897 -1347 3439 -1219 
Q 2981 -1091 2581 -856 
Q 2181 -622 1853 -294 
Q 1525 34 1290 434 
Q 1056 834 928 1293 
Q 800 1753 800 2247 
Q 800 2994 1097 3678 
Q 1063 3588 1042 3494 
Q 1022 3400 1022 3303 
Q 1022 3119 1087 2948 
Q 1153 2778 1272 2641 
Q 1259 2541 1254 2444 
Q 1250 2347 1250 2247 
Q 1250 1813 1362 1411 
Q 1475 1009 1679 659 
Q 1884 309 2170 23 
Q 2456 -263 2806 -467 
Q 3156 -672 3557 -784 
Q 3959 -897 4394 -897 
Q 4828 -897 5229 -784 
Q 5631 -672 5981 -467 
Q 6331 -263 6617 23 
Q 6903 309 7108 659 
Q 7313 1009 7425 1411 
Q 7538 1813 7538 2247 
z
M 6191 1572 
Q 6191 1200 6048 873 
Q 5906 547 5662 303 
Q 5419 59 5092 -83 
Q 4766 -225 4394 -225 
Q 4022 -225 3695 -83 
Q 3369 59 3125 303 
Q 2881 547 2739 873 
Q 2597 1200 2597 1572 
L 6191 1572 
z
M 1250 3300 
Q 1250 3463 1311 3603 
Q 1372 3744 1478 3848 
Q 1584 3953 1726 4014 
Q 1869 4075 2031 4075 
Q 2175 4075 2283 4028 
Q 2391 3981 2516 3919 
Q 2531 3953 2550 3993 
Q 2569 4034 2591 4069 
Q 2641 4166 2714 4244 
Q 2788 4322 2878 4378 
Q 2969 4434 3072 4464 
Q 3175 4494 3284 4494 
Q 3444 4494 3584 4433 
Q 3725 4372 3829 4267 
Q 3934 4163 3995 4022 
Q 4056 3881 4056 3722 
Q 4056 3534 3975 3372 
L 3209 1841 
L 1675 2606 
Q 1578 2653 1500 2728 
Q 1422 2803 1365 2893 
Q 1309 2984 1279 3087 
Q 1250 3191 1250 3300 
z
M 7538 3303 
Q 7538 3078 7434 2915 
Q 7331 2753 7153 2628 
Q 7113 2600 7044 2565 
Q 6975 2531 6898 2493 
Q 6822 2456 6751 2423 
Q 6681 2391 6634 2369 
L 5578 1841 
L 4813 3372 
Q 4731 3534 4731 3719 
Q 4731 3878 4792 4018 
Q 4853 4159 4958 4264 
Q 5063 4369 5203 4430 
Q 5344 4491 5503 4491 
Q 5728 4491 5909 4378 
Q 6091 4266 6194 4069 
L 6272 3919 
Q 6319 3941 6342 3953 
Q 6366 3966 6406 3984 
Q 6409 3988 6415 3992 
Q 6422 3997 6428 3997 
Q 6581 4072 6759 4072 
Q 6919 4072 7061 4012 
Q 7203 3953 7309 3848 
Q 7416 3744 7477 3603 
Q 7538 3463 7538 3303 
z
M 2838 1347 
Q 2872 1106 2972 900 
L 5813 900 
Q 5919 1116 5950 1347 
L 2838 1347 
z
M 4394 0 
Q 4566 0 4734 37 
Q 4903 75 5059 150 
Q 4931 297 4759 373 
Q 4588 450 4394 450 
Q 4200 450 4028 373 
Q 3856 297 3728 150 
Q 3884 75 4053 37 
Q 4222 0 4394 0 
z
M 1097 3678 
L 1125 3734 
L 1097 3678 
z
" id="SegoeUIEmoji-1f60d" transform="scale(0.015625)"/>
     </defs>
     <use xlink:href="#SegoeUIEmoji-1f60d"/>
    </g>
   </g>
   <g id="text_13">
    <!-- 3 -->
    <g transform="translate(465.138642 300.943522)scale(0.25 -0.25)">
     <defs>
      <path d="M 409 166 
L 409 719 
Q 869 356 1447 356 
Q 1916 356 2195 590 
Q 2475 825 2475 1222 
Q 2475 2100 1228 2100 
L 856 2100 
L 856 2534 
L 1209 2534 
Q 2319 2534 2319 3359 
Q 2319 4122 1472 4122 
Q 1000 4122 581 3800 
L 581 4300 
Q 1013 4556 1600 4556 
Q 2166 4556 2505 4256 
Q 2844 3956 2844 3488 
Q 2844 2603 1944 2350 
L 1944 2338 
Q 2428 2291 2714 1998 
Q 3000 1706 3000 1269 
Q 3000 666 2567 295 
Q 2134 -75 1425 -75 
Q 788 -75 409 166 
z
" id="SegoeUIEmoji-33" transform="scale(0.015625)"/>
     </defs>
     <use xlink:href="#SegoeUIEmoji-33"/>
    </g>
   </g>
   <g id="text_14">
    <!-- ðŸ‘Ž -->
    <g transform="translate(453.382392 342.650558)scale(0.3 -0.3)">
     <defs>
      <path d="M 2147 5166 
L 7088 5166 
L 7088 1797 
L 5628 1797 
L 4394 150 
L 4394 -450 
Q 4394 -638 4323 -800 
Q 4253 -963 4131 -1084 
Q 4009 -1206 3845 -1276 
Q 3681 -1347 3494 -1347 
Q 3309 -1347 3145 -1276 
Q 2981 -1206 2859 -1084 
Q 2738 -963 2667 -798 
Q 2597 -634 2597 -450 
L 2597 675 
Q 2597 788 2625 900 
L 2147 900 
Q 1963 900 1798 970 
Q 1634 1041 1512 1162 
Q 1391 1284 1320 1448 
Q 1250 1613 1250 1797 
L 1250 1919 
Q 1041 2041 920 2247 
Q 800 2453 800 2697 
L 800 3369 
Q 800 3613 920 3817 
Q 1041 4022 1250 4147 
L 1250 4269 
Q 1250 4453 1320 4617 
Q 1391 4781 1512 4903 
Q 1634 5025 1798 5095 
Q 1963 5166 2147 5166 
z
M 6641 2247 
L 6641 4719 
L 3769 4719 
Q 3853 4628 3898 4511 
Q 3944 4394 3944 4269 
L 3944 1797 
Q 3944 1656 3891 1532 
Q 3838 1409 3744 1318 
Q 3650 1228 3526 1176 
Q 3403 1125 3263 1125 
Q 3228 1072 3190 1020 
Q 3153 969 3120 914 
Q 3088 859 3067 800 
Q 3047 741 3047 675 
L 3047 -450 
Q 3047 -544 3081 -625 
Q 3116 -706 3177 -767 
Q 3238 -828 3319 -862 
Q 3400 -897 3494 -897 
Q 3588 -897 3669 -862 
Q 3750 -828 3811 -767 
Q 3872 -706 3908 -625 
Q 3944 -544 3944 -450 
L 3944 300 
L 5403 2247 
L 6641 2247 
z
M 1250 2697 
Q 1250 2603 1284 2520 
Q 1319 2438 1380 2377 
Q 1441 2316 1522 2281 
Q 1603 2247 1697 2247 
L 3719 2247 
L 3719 2922 
L 1250 2922 
L 1250 2697 
z
M 1250 3369 
L 1250 3144 
L 3719 3144 
L 3719 3819 
L 1697 3819 
Q 1603 3819 1522 3783 
Q 1441 3747 1380 3686 
Q 1319 3625 1284 3544 
Q 1250 3463 1250 3369 
z
M 2147 1347 
L 3416 1347 
Q 3447 1347 3494 1375 
Q 3541 1403 3566 1422 
Q 3650 1488 3684 1591 
Q 3719 1694 3719 1797 
L 3719 2022 
L 1697 2022 
L 1697 1797 
Q 1697 1703 1733 1622 
Q 1769 1541 1830 1480 
Q 1891 1419 1972 1383 
Q 2053 1347 2147 1347 
z
M 1697 4269 
L 1697 4044 
L 3719 4044 
L 3719 4269 
Q 3719 4363 3684 4444 
Q 3650 4525 3589 4586 
Q 3528 4647 3447 4683 
Q 3366 4719 3272 4719 
L 2147 4719 
Q 2053 4719 1972 4683 
Q 1891 4647 1830 4586 
Q 1769 4525 1733 4444 
Q 1697 4363 1697 4269 
z
" id="SegoeUIEmoji-1f44e" transform="scale(0.015625)"/>
     </defs>
     <use xlink:href="#SegoeUIEmoji-1f44e"/>
    </g>
   </g>
   <g id="text_15">
    <!-- 31 -->
    <g transform="translate(524.861899 290.213269)scale(0.25 -0.25)">
     <use xlink:href="#SegoeUIEmoji-33"/>
     <use x="53.90625" xlink:href="#SegoeUIEmoji-31"/>
    </g>
   </g>
   <g id="text_16">
    <!-- ðŸ˜® -->
    <g transform="translate(517.741587 344.232589)scale(0.3 -0.3)">
     <defs>
      <path d="M 4394 5841 
Q 4891 5841 5350 5712 
Q 5809 5584 6207 5350 
Q 6606 5116 6934 4787 
Q 7263 4459 7497 4061 
Q 7731 3663 7859 3203 
Q 7988 2744 7988 2247 
Q 7988 1750 7859 1290 
Q 7731 831 7497 432 
Q 7263 34 6934 -294 
Q 6606 -622 6207 -856 
Q 5809 -1091 5350 -1219 
Q 4891 -1347 4394 -1347 
Q 3897 -1347 3437 -1219 
Q 2978 -1091 2579 -856 
Q 2181 -622 1853 -294 
Q 1525 34 1290 432 
Q 1056 831 928 1290 
Q 800 1750 800 2247 
Q 800 2744 928 3203 
Q 1056 3663 1290 4061 
Q 1525 4459 1853 4787 
Q 2181 5116 2579 5350 
Q 2978 5584 3437 5712 
Q 3897 5841 4394 5841 
z
M 4394 -897 
Q 4828 -897 5229 -784 
Q 5631 -672 5981 -467 
Q 6331 -263 6617 23 
Q 6903 309 7108 659 
Q 7313 1009 7425 1411 
Q 7538 1813 7538 2247 
Q 7538 2681 7425 3082 
Q 7313 3484 7108 3834 
Q 6903 4184 6617 4470 
Q 6331 4756 5981 4961 
Q 5631 5166 5229 5278 
Q 4828 5391 4394 5391 
Q 3959 5391 3557 5278 
Q 3156 5166 2806 4961 
Q 2456 4756 2170 4470 
Q 1884 4184 1679 3834 
Q 1475 3484 1362 3082 
Q 1250 2681 1250 2247 
Q 1250 1813 1362 1411 
Q 1475 1009 1679 659 
Q 1884 309 2170 23 
Q 2456 -263 2806 -467 
Q 3156 -672 3557 -784 
Q 3959 -897 4394 -897 
z
M 3159 3594 
Q 3228 3594 3290 3567 
Q 3353 3541 3397 3494 
Q 3441 3447 3467 3386 
Q 3494 3325 3494 3256 
L 3494 2809 
Q 3494 2741 3467 2680 
Q 3441 2619 3397 2572 
Q 3353 2525 3290 2498 
Q 3228 2472 3159 2472 
Q 3088 2472 3027 2498 
Q 2966 2525 2920 2570 
Q 2875 2616 2848 2677 
Q 2822 2738 2822 2809 
L 2822 3256 
Q 2822 3325 2848 3387 
Q 2875 3450 2920 3495 
Q 2966 3541 3027 3567 
Q 3088 3594 3159 3594 
z
M 5628 3594 
Q 5697 3594 5759 3567 
Q 5822 3541 5867 3495 
Q 5913 3450 5939 3387 
Q 5966 3325 5966 3256 
L 5966 2809 
Q 5966 2738 5939 2677 
Q 5913 2616 5867 2570 
Q 5822 2525 5759 2498 
Q 5697 2472 5628 2472 
Q 5559 2472 5498 2498 
Q 5438 2525 5391 2572 
Q 5344 2619 5317 2680 
Q 5291 2741 5291 2809 
L 5291 3256 
Q 5291 3325 5317 3386 
Q 5344 3447 5391 3494 
Q 5438 3541 5498 3567 
Q 5559 3594 5628 3594 
z
M 4394 1572 
Q 4534 1572 4656 1519 
Q 4778 1466 4870 1375 
Q 4963 1284 5016 1162 
Q 5069 1041 5069 900 
L 5069 675 
Q 5069 534 5016 412 
Q 4963 291 4870 198 
Q 4778 106 4656 53 
Q 4534 0 4394 0 
Q 4253 0 4131 53 
Q 4009 106 3917 198 
Q 3825 291 3772 412 
Q 3719 534 3719 675 
L 3719 900 
Q 3719 1041 3772 1162 
Q 3825 1284 3917 1375 
Q 4009 1466 4131 1519 
Q 4253 1572 4394 1572 
z
" id="SegoeUIEmoji-1f62e" transform="scale(0.015625)"/>
     </defs>
     <use xlink:href="#SegoeUIEmoji-1f62e"/>
    </g>
   </g>
   <g id="text_17">
    <!-- 38 -->
    <g transform="translate(591.323437 287.530705)scale(0.25 -0.25)">
     <defs>
      <path d="M 1281 2350 
L 1281 2363 
Q 475 2738 475 3450 
Q 475 3934 844 4245 
Q 1213 4556 1794 4556 
Q 2319 4556 2656 4265 
Q 2994 3975 2994 3519 
Q 2994 2775 2163 2363 
L 2163 2350 
Q 3144 2000 3144 1138 
Q 3144 581 2744 253 
Q 2344 -75 1631 -75 
Q 1056 -75 684 250 
Q 313 575 313 1094 
Q 313 1956 1281 2350 
z
M 2469 3456 
Q 2469 3766 2275 3944 
Q 2081 4122 1747 4122 
Q 1434 4122 1217 3936 
Q 1000 3750 1000 3463 
Q 1000 2878 1728 2581 
Q 2469 2888 2469 3456 
z
M 1694 2106 
Q 838 1766 838 1119 
Q 838 784 1086 570 
Q 1334 356 1741 356 
Q 2128 356 2373 567 
Q 2619 778 2619 1100 
Q 2619 1775 1694 2106 
z
" id="SegoeUIEmoji-38" transform="scale(0.015625)"/>
     </defs>
     <use xlink:href="#SegoeUIEmoji-33"/>
     <use x="53.90625" xlink:href="#SegoeUIEmoji-38"/>
    </g>
   </g>
   <g id="text_18">
    <!-- ðŸ˜¢ -->
    <g transform="translate(584.203125 344.232589)scale(0.3 -0.3)">
     <defs>
      <path d="M 4394 5841 
Q 4888 5841 5347 5712 
Q 5806 5584 6206 5350 
Q 6606 5116 6934 4787 
Q 7263 4459 7497 4059 
Q 7731 3659 7859 3200 
Q 7988 2741 7988 2247 
Q 7988 1750 7859 1292 
Q 7731 834 7497 434 
Q 7263 34 6934 -294 
Q 6606 -622 6206 -856 
Q 5806 -1091 5347 -1219 
Q 4888 -1347 4394 -1347 
Q 3897 -1347 3439 -1219 
Q 2981 -1091 2581 -856 
Q 2181 -622 1853 -294 
Q 1525 34 1290 434 
Q 1056 834 928 1293 
Q 800 1753 800 2247 
Q 800 2741 928 3200 
Q 1056 3659 1290 4059 
Q 1525 4459 1853 4787 
Q 2181 5116 2581 5350 
Q 2981 5584 3439 5712 
Q 3897 5841 4394 5841 
z
M 4394 -897 
Q 4828 -897 5229 -784 
Q 5631 -672 5981 -467 
Q 6331 -263 6617 23 
Q 6903 309 7108 659 
Q 7313 1009 7425 1411 
Q 7538 1813 7538 2247 
Q 7538 2681 7425 3082 
Q 7313 3484 7108 3834 
Q 6903 4184 6617 4470 
Q 6331 4756 5981 4961 
Q 5631 5166 5229 5278 
Q 4828 5391 4394 5391 
Q 3959 5391 3557 5278 
Q 3156 5166 2806 4961 
Q 2456 4756 2170 4470 
Q 1884 4184 1679 3834 
Q 1475 3484 1362 3082 
Q 1250 2681 1250 2247 
Q 1250 1709 1422 1212 
Q 1594 716 1928 297 
Q 1925 272 1923 250 
Q 1922 228 1922 203 
Q 1922 19 1994 -142 
Q 2066 -303 2191 -422 
Q 2316 -541 2478 -608 
Q 2641 -675 2825 -675 
Q 2975 -675 3116 -628 
Q 3419 -766 3741 -831 
Q 4063 -897 4394 -897 
z
M 3494 219 
Q 3494 78 3441 -44 
Q 3388 -166 3297 -256 
Q 3206 -347 3084 -398 
Q 2963 -450 2825 -450 
Q 2684 -450 2559 -400 
Q 2434 -350 2343 -261 
Q 2253 -172 2200 -51 
Q 2147 69 2147 213 
Q 2147 313 2173 405 
Q 2200 497 2250 581 
L 2822 1572 
L 3322 703 
Q 3359 641 3390 584 
Q 3422 528 3445 472 
Q 3469 416 3481 355 
Q 3494 294 3494 219 
z
M 3500 847 
Q 3697 984 3923 1054 
Q 4150 1125 4388 1125 
Q 4553 1125 4717 1090 
Q 4881 1056 5032 989 
Q 5184 922 5320 823 
Q 5456 725 5566 600 
Q 5625 531 5625 453 
Q 5625 406 5606 365 
Q 5588 325 5556 294 
Q 5525 263 5484 244 
Q 5444 225 5400 225 
Q 5347 225 5306 245 
Q 5266 266 5231 300 
Q 5050 478 4851 576 
Q 4653 675 4394 675 
Q 4200 675 4022 612 
Q 3844 550 3694 431 
Q 3666 550 3611 647 
Q 3556 744 3500 847 
z
M 6641 2988 
Q 6641 2941 6622 2900 
Q 6603 2859 6572 2828 
Q 6541 2797 6500 2778 
Q 6459 2759 6416 2759 
Q 6363 2759 6322 2779 
Q 6281 2800 6247 2838 
Q 6000 3091 5714 3230 
Q 5428 3369 5069 3369 
Q 4978 3369 4911 3436 
Q 4844 3503 4844 3594 
Q 4844 3688 4909 3753 
Q 4975 3819 5069 3819 
Q 5278 3819 5490 3773 
Q 5703 3728 5901 3640 
Q 6100 3553 6273 3425 
Q 6447 3297 6584 3134 
Q 6641 3063 6641 2988 
z
M 2147 2988 
Q 2147 3063 2203 3134 
Q 2338 3297 2513 3425 
Q 2688 3553 2886 3640 
Q 3084 3728 3295 3773 
Q 3506 3819 3719 3819 
Q 3813 3819 3878 3753 
Q 3944 3688 3944 3594 
Q 3944 3503 3876 3436 
Q 3809 3369 3719 3369 
Q 3359 3369 3073 3230 
Q 2788 3091 2541 2838 
Q 2506 2800 2465 2779 
Q 2425 2759 2372 2759 
Q 2328 2759 2287 2778 
Q 2247 2797 2215 2828 
Q 2184 2859 2165 2900 
Q 2147 2941 2147 2988 
z
M 5628 2697 
Q 5697 2697 5759 2670 
Q 5822 2644 5867 2598 
Q 5913 2553 5939 2490 
Q 5966 2428 5966 2359 
L 5966 1909 
Q 5966 1841 5939 1780 
Q 5913 1719 5866 1672 
Q 5819 1625 5758 1598 
Q 5697 1572 5628 1572 
Q 5559 1572 5498 1598 
Q 5438 1625 5391 1672 
Q 5344 1719 5317 1780 
Q 5291 1841 5291 1909 
L 5291 2359 
Q 5291 2428 5317 2489 
Q 5344 2550 5391 2597 
Q 5438 2644 5498 2670 
Q 5559 2697 5628 2697 
z
M 2822 2359 
Q 2822 2428 2848 2490 
Q 2875 2553 2920 2598 
Q 2966 2644 3027 2670 
Q 3088 2697 3159 2697 
Q 3228 2697 3290 2670 
Q 3353 2644 3397 2597 
Q 3441 2550 3467 2489 
Q 3494 2428 3494 2359 
L 3494 1909 
Q 3494 1841 3467 1780 
Q 3441 1719 3395 1672 
Q 3350 1625 3289 1598 
Q 3228 1572 3159 1572 
Q 3091 1572 3030 1598 
Q 2969 1625 2922 1672 
Q 2875 1719 2848 1780 
Q 2822 1841 2822 1909 
L 2822 2359 
z
" id="SegoeUIEmoji-1f622" transform="scale(0.015625)"/>
     </defs>
     <use xlink:href="#SegoeUIEmoji-1f622"/>
    </g>
   </g>
   <g id="text_19">
    <!-- 198 -->
    <g transform="translate(651.046695 226.214972)scale(0.25 -0.25)">
     <defs>
      <path d="M 538 75 
L 538 569 
Q 913 356 1331 356 
Q 1941 356 2280 847 
Q 2619 1338 2619 2241 
Q 2613 2238 2606 2241 
Q 2319 1663 1606 1663 
Q 1031 1663 662 2053 
Q 294 2444 294 3059 
Q 294 3716 698 4136 
Q 1103 4556 1734 4556 
Q 2397 4556 2767 4032 
Q 3138 3509 3138 2509 
Q 3138 1269 2656 597 
Q 2175 -75 1319 -75 
Q 869 -75 538 75 
z
M 1688 4122 
Q 1316 4122 1067 3842 
Q 819 3563 819 3131 
Q 819 2659 1062 2389 
Q 1306 2119 1722 2119 
Q 2084 2119 2336 2366 
Q 2588 2613 2588 2969 
Q 2588 3478 2338 3800 
Q 2088 4122 1688 4122 
z
" id="SegoeUIEmoji-39" transform="scale(0.015625)"/>
     </defs>
     <use xlink:href="#SegoeUIEmoji-31"/>
     <use x="53.90625" xlink:href="#SegoeUIEmoji-39"/>
     <use x="107.8125" xlink:href="#SegoeUIEmoji-38"/>
    </g>
   </g>
   <g id="text_20">
    <!-- ðŸ˜† -->
    <g transform="translate(650.664663 344.232589)scale(0.3 -0.3)">
     <defs>
      <path d="M 4394 5841 
Q 4891 5841 5350 5712 
Q 5809 5584 6207 5350 
Q 6606 5116 6934 4787 
Q 7263 4459 7497 4061 
Q 7731 3663 7859 3203 
Q 7988 2744 7988 2247 
Q 7988 1750 7859 1290 
Q 7731 831 7497 432 
Q 7263 34 6934 -294 
Q 6606 -622 6207 -856 
Q 5809 -1091 5350 -1219 
Q 4891 -1347 4394 -1347 
Q 3897 -1347 3437 -1219 
Q 2978 -1091 2579 -856 
Q 2181 -622 1853 -294 
Q 1525 34 1290 432 
Q 1056 831 928 1290 
Q 800 1750 800 2247 
Q 800 2744 928 3203 
Q 1056 3663 1290 4061 
Q 1525 4459 1853 4787 
Q 2181 5116 2579 5350 
Q 2978 5584 3437 5712 
Q 3897 5841 4394 5841 
z
M 4394 -897 
Q 4828 -897 5229 -784 
Q 5631 -672 5981 -467 
Q 6331 -263 6617 23 
Q 6903 309 7108 659 
Q 7313 1009 7425 1411 
Q 7538 1813 7538 2247 
Q 7538 2681 7425 3082 
Q 7313 3484 7108 3834 
Q 6903 4184 6617 4470 
Q 6331 4756 5981 4961 
Q 5631 5166 5229 5278 
Q 4828 5391 4394 5391 
Q 3959 5391 3557 5278 
Q 3156 5166 2806 4961 
Q 2456 4756 2170 4470 
Q 1884 4184 1679 3834 
Q 1475 3484 1362 3082 
Q 1250 2681 1250 2247 
Q 1250 1813 1362 1411 
Q 1475 1009 1679 659 
Q 1884 309 2170 23 
Q 2456 -263 2806 -467 
Q 3156 -672 3557 -784 
Q 3959 -897 4394 -897 
z
M 4394 -225 
Q 4022 -225 3695 -83 
Q 3369 59 3125 303 
Q 2881 547 2739 873 
Q 2597 1200 2597 1572 
L 6191 1572 
Q 6191 1200 6048 873 
Q 5906 547 5662 303 
Q 5419 59 5092 -83 
Q 4766 -225 4394 -225 
z
M 4394 0 
Q 4566 0 4734 37 
Q 4903 75 5059 150 
Q 4931 297 4759 373 
Q 4588 450 4394 450 
Q 4200 450 4028 373 
Q 3856 297 3728 150 
Q 3884 75 4053 37 
Q 4222 0 4394 0 
z
M 5813 900 
Q 5919 1116 5950 1347 
L 2838 1347 
Q 2872 1106 2972 900 
L 5813 900 
z
M 4619 2809 
Q 4619 2872 4653 2926 
Q 4688 2981 4744 3009 
L 6416 3819 
L 6416 3594 
L 5344 2809 
L 6416 2022 
L 6416 1797 
L 4744 2606 
Q 4688 2634 4653 2690 
Q 4619 2747 4619 2809 
z
M 4169 2809 
Q 4169 2747 4134 2690 
Q 4100 2634 4044 2606 
L 2372 1797 
L 2372 2022 
L 3441 2809 
L 2372 3594 
L 2372 3819 
L 4044 3009 
Q 4100 2981 4134 2926 
Q 4169 2872 4169 2809 
z
" id="SegoeUIEmoji-1f606" transform="scale(0.015625)"/>
     </defs>
     <use xlink:href="#SegoeUIEmoji-1f606"/>
    </g>
   </g>
   <g id="text_21">
    <!-- 344 -->
    <g transform="translate(717.508233 170.264365)scale(0.25 -0.25)">
     <defs>
      <path d="M 2656 4481 
L 2656 1522 
L 3231 1522 
L 3231 1053 
L 2656 1053 
L 2656 0 
L 2150 0 
L 2150 1053 
L 44 1053 
L 44 1497 
Q 338 1828 638 2204 
Q 938 2581 1211 2968 
Q 1484 3356 1717 3742 
Q 1950 4128 2109 4481 
L 2656 4481 
z
M 622 1522 
L 2150 1522 
L 2150 3716 
Q 1916 3306 1706 2984 
Q 1497 2663 1308 2400 
Q 1119 2138 947 1925 
Q 775 1713 622 1522 
z
" id="SegoeUIEmoji-34" transform="scale(0.015625)"/>
     </defs>
     <use xlink:href="#SegoeUIEmoji-33"/>
     <use x="53.90625" xlink:href="#SegoeUIEmoji-34"/>
     <use x="107.8125" xlink:href="#SegoeUIEmoji-34"/>
    </g>
   </g>
   <g id="text_22">
    <!-- ðŸ‘ -->
    <g transform="translate(719.228546 342.650558)scale(0.3 -0.3)">
     <defs>
      <path d="M 6641 1900 
Q 6747 1841 6830 1758 
Q 6913 1675 6970 1573 
Q 7028 1472 7058 1359 
Q 7088 1247 7088 1125 
L 7088 450 
Q 7088 206 6969 0 
Q 6850 -206 6641 -328 
L 6641 -450 
Q 6641 -638 6570 -800 
Q 6500 -963 6378 -1084 
Q 6256 -1206 6092 -1276 
Q 5928 -1347 5741 -1347 
L 800 -1347 
L 800 2022 
L 2259 2022 
L 3494 3669 
L 3494 4269 
Q 3494 4456 3564 4618 
Q 3634 4781 3756 4903 
Q 3878 5025 4042 5095 
Q 4206 5166 4394 5166 
Q 4578 5166 4742 5095 
Q 4906 5025 5028 4903 
Q 5150 4781 5220 4617 
Q 5291 4453 5291 4269 
L 5291 3144 
Q 5291 3028 5263 2922 
L 5741 2922 
Q 5928 2922 6092 2851 
Q 6256 2781 6378 2659 
Q 6500 2538 6570 2373 
Q 6641 2209 6641 2022 
L 6641 1900 
z
M 4119 -897 
Q 4038 -806 3991 -690 
Q 3944 -575 3944 -450 
L 3944 2022 
Q 3944 2166 3997 2289 
Q 4050 2413 4144 2503 
Q 4238 2594 4363 2645 
Q 4488 2697 4628 2697 
Q 4663 2747 4700 2800 
Q 4738 2853 4770 2906 
Q 4803 2959 4823 3018 
Q 4844 3078 4844 3144 
L 4844 4269 
Q 4844 4363 4808 4444 
Q 4772 4525 4711 4586 
Q 4650 4647 4569 4683 
Q 4488 4719 4394 4719 
Q 4300 4719 4219 4683 
Q 4138 4647 4077 4586 
Q 4016 4525 3980 4444 
Q 3944 4363 3944 4269 
L 3944 3519 
L 2484 1572 
L 1250 1572 
L 1250 -897 
L 4119 -897 
z
M 6641 450 
L 6641 675 
L 4169 675 
L 4169 0 
L 6191 0 
Q 6284 0 6365 36 
Q 6447 72 6508 133 
Q 6569 194 6605 275 
Q 6641 356 6641 450 
z
M 6641 1125 
Q 6641 1219 6605 1300 
Q 6569 1381 6508 1442 
Q 6447 1503 6365 1537 
Q 6284 1572 6191 1572 
L 4169 1572 
L 4169 900 
L 6641 900 
L 6641 1125 
z
M 5741 2472 
L 4475 2472 
Q 4441 2472 4394 2447 
Q 4347 2422 4322 2397 
Q 4241 2325 4205 2226 
Q 4169 2128 4169 2022 
L 4169 1797 
L 6191 1797 
L 6191 2022 
Q 6191 2116 6155 2197 
Q 6119 2278 6058 2339 
Q 5997 2400 5915 2436 
Q 5834 2472 5741 2472 
z
M 6191 -450 
L 6191 -225 
L 4169 -225 
L 4169 -450 
Q 4169 -544 4205 -625 
Q 4241 -706 4302 -767 
Q 4363 -828 4444 -862 
Q 4525 -897 4619 -897 
L 5741 -897 
Q 5834 -897 5915 -862 
Q 5997 -828 6058 -767 
Q 6119 -706 6155 -625 
Q 6191 -544 6191 -450 
z
" id="SegoeUIEmoji-1f44d" transform="scale(0.015625)"/>
     </defs>
     <use xlink:href="#SegoeUIEmoji-1f44d"/>
    </g>
   </g>
   <g id="text_23">
    <!-- 671 -->
    <g transform="translate(783.969772 44.950335)scale(0.25 -0.25)">
     <defs>
      <path d="M 2919 4428 
L 2919 3944 
Q 2572 4122 2188 4122 
Q 1591 4122 1233 3590 
Q 875 3059 875 2169 
L 888 2169 
Q 1200 2803 1913 2803 
Q 2500 2803 2847 2426 
Q 3194 2050 3194 1419 
Q 3194 759 2797 342 
Q 2400 -75 1788 -75 
Q 1113 -75 728 462 
Q 344 1000 344 1972 
Q 344 3150 847 3853 
Q 1350 4556 2175 4556 
Q 2644 4556 2919 4428 
z
M 1800 2369 
Q 1403 2369 1156 2100 
Q 909 1831 909 1466 
Q 909 1006 1154 681 
Q 1400 356 1806 356 
Q 2194 356 2431 639 
Q 2669 922 2669 1356 
Q 2669 1831 2441 2100 
Q 2213 2369 1800 2369 
z
" id="SegoeUIEmoji-36" transform="scale(0.015625)"/>
      <path d="M 3156 4319 
L 1381 0 
L 850 0 
L 2528 4019 
L 269 4019 
L 269 4481 
L 3156 4481 
L 3156 4319 
z
" id="SegoeUIEmoji-37" transform="scale(0.015625)"/>
     </defs>
     <use xlink:href="#SegoeUIEmoji-36"/>
     <use x="53.90625" xlink:href="#SegoeUIEmoji-37"/>
     <use x="107.8125" xlink:href="#SegoeUIEmoji-31"/>
    </g>
   </g>
   <g id="text_24">
    <!-- â¤ -->
    <g transform="translate(783.58774 342.561496)scale(0.3 -0.3)">
     <defs>
      <path d="M 5950 5391 
Q 6231 5391 6490 5317 
Q 6750 5244 6976 5111 
Q 7203 4978 7389 4792 
Q 7575 4606 7708 4379 
Q 7841 4153 7914 3893 
Q 7988 3634 7988 3353 
Q 7988 2938 7836 2572 
Q 7684 2206 7391 1913 
L 4394 -1084 
L 1397 1913 
Q 1103 2206 951 2572 
Q 800 2938 800 3353 
Q 800 3634 873 3895 
Q 947 4156 1078 4381 
Q 1209 4606 1396 4793 
Q 1584 4981 1809 5112 
Q 2034 5244 2295 5317 
Q 2556 5391 2838 5391 
Q 3078 5391 3290 5342 
Q 3503 5294 3692 5203 
Q 3881 5113 4054 4980 
Q 4228 4847 4394 4678 
Q 4559 4847 4732 4980 
Q 4906 5113 5095 5205 
Q 5284 5297 5496 5344 
Q 5709 5391 5950 5391 
z
M 4394 -450 
L 7072 2231 
Q 7297 2456 7417 2745 
Q 7538 3034 7538 3353 
Q 7538 3681 7413 3970 
Q 7288 4259 7072 4475 
Q 6856 4691 6567 4816 
Q 6278 4941 5950 4941 
Q 5694 4941 5494 4878 
Q 5294 4816 5125 4708 
Q 4956 4600 4804 4454 
Q 4653 4309 4494 4147 
L 4394 4044 
L 4303 4138 
Q 4144 4303 3991 4448 
Q 3838 4594 3667 4703 
Q 3497 4813 3295 4877 
Q 3094 4941 2838 4941 
Q 2509 4941 2220 4816 
Q 1931 4691 1715 4475 
Q 1500 4259 1375 3970 
Q 1250 3681 1250 3353 
Q 1250 3034 1370 2745 
Q 1491 2456 1716 2231 
L 4394 -450 
z
" id="SegoeUIEmoji-2764" transform="scale(0.015625)"/>
     </defs>
     <use xlink:href="#SegoeUIEmoji-2764"/>
    </g>
   </g>
  </g>
 </g>
 <defs>
  <clipPath id="p4eced8d0f2">
   <rect height="360" width="864" x="0" y="0"/>
  </clipPath>
 </defs>
</svg>
